<svg width="80" height="80" viewBox="0 0 80 80" fill="none" xmlns="http://www.w3.org/2000/svg">
<path fill-rule="evenodd" clip-rule="evenodd" d="M40 80C62.0914 80 80 62.0914 80 40C80 17.9086 62.0914 0 40 0C17.9086 0 0 17.9086 0 40C0 62.0914 17.9086 80 40 80Z" fill="#F4F8FD"/>
<g filter="url(#filter0_d)">
<path d="M57.3334 29.9155V59.631C57.3334 60.4185 56.6979 61.0371 55.8889 61.0371H24.1112C23.3022 61.0371 22.6667 60.4185 22.6667 59.631V20.0728C22.6667 19.2853 23.3022 18.6667 24.1112 18.6667H45.7778L57.3334 29.9155Z" fill="white"/>
<path d="M57.3334 26.8501V29.9155H47.2223C46.4133 29.9155 45.7778 29.2969 45.7778 28.5094V18.6667H48.9268C50.0823 18.6667 51.1512 19.1165 51.989 19.9041L56.0623 23.8692C56.8713 24.6848 57.3334 25.7253 57.3334 26.8501Z" fill="#E9F0F7"/>
<path d="M51.1221 51.9911C50.5733 52.5535 49.649 52.5535 49.1 51.9911L41.1844 44.3139C40.6355 43.7796 40.6355 42.8797 41.1844 42.3171C41.7621 41.7828 42.6867 41.7828 43.2356 42.3171L51.1221 50.0227C51.7 50.557 51.7 51.4567 51.1221 51.9911Z" fill="#C0CCDA"/>
<path d="M43.2357 32.3902C39.8558 29.1001 34.3669 29.1001 30.9869 32.3902C27.6069 35.6804 27.607 41.0237 30.9869 44.3139C34.3668 47.6042 39.8557 47.6041 43.2357 44.3139C46.6157 41.0238 46.6156 35.6805 43.2357 32.3902Z" fill="#C0CCDA"/>
<path d="M43.2357 44.3139C39.8558 47.6041 34.3669 47.6041 30.9869 44.3139C27.6069 41.0237 27.607 35.6805 30.9869 32.3902L43.2357 44.3139Z" fill="#C0CCDA"/>
<path d="M41.1844 34.3869C38.9311 32.1652 35.2911 32.1652 33.0379 34.3869C30.7556 36.5804 30.7556 40.1237 33.0379 42.3171C35.2911 44.5389 38.9311 44.5389 41.1844 42.3171C43.4667 40.1237 43.4667 36.5804 41.1844 34.3869Z" fill="#F4F8FD"/>
</g>
<defs>
<filter id="filter0_d" x="15.6667" y="15.6667" width="42.6666" height="50.3704" filterUnits="userSpaceOnUse" color-interpolation-filters="sRGB">
<feFlood flood-opacity="0" result="BackgroundImageFix"/>
<feColorMatrix in="SourceAlpha" type="matrix" values="0 0 0 0 0 0 0 0 0 0 0 0 0 0 0 0 0 0 127 0"/>
<feOffset dx="-3" dy="1"/>
<feGaussianBlur stdDeviation="2"/>
<feColorMatrix type="matrix" values="0 0 0 0 0.6 0 0 0 0 0.662745 0 0 0 0 0.74902 0 0 0 0.12 0"/>
<feBlend mode="normal" in2="BackgroundImageFix" result="effect1_dropShadow"/>
<feBlend mode="normal" in="SourceGraphic" in2="effect1_dropShadow" result="shape"/>
</filter>
</defs>
</svg>
