<svg fill="none" height="60" viewBox="0 0 60 60" width="60" xmlns="http://www.w3.org/2000/svg" xmlns:xlink="http://www.w3.org/1999/xlink"><filter id="a" color-interpolation-filters="sRGB" filterUnits="userSpaceOnUse" height="43.1333" width="39" x="8" y="9"><feFlood flood-opacity="0" result="BackgroundImageFix"/><feColorMatrix in="SourceAlpha" type="matrix" values="0 0 0 0 0 0 0 0 0 0 0 0 0 0 0 0 0 0 127 0"/><feOffset dx="-3" dy="1"/><feGaussianBlur stdDeviation="2"/><feColorMatrix type="matrix" values="0 0 0 0 0.6 0 0 0 0 0.662745 0 0 0 0 0.74902 0 0 0 0.12 0"/><feBlend in2="BackgroundImageFix" mode="normal" result="effect1_dropShadow"/><feBlend in="SourceGraphic" in2="effect1_dropShadow" mode="normal" result="shape"/></filter><clipPath id="b"><path d="m15 12h31v35.1333h-31z"/></clipPath><clipPath id="c"><path d="m33.9875 30.3774h3.875v4.05385h-3.875z"/></clipPath><path clip-rule="evenodd" d="m30 60c16.5685 0 30-13.4315 30-30s-13.4315-30-30-30-30 13.4315-30 30 13.4315 30 30 30z" fill="#f4f8fd" fill-rule="evenodd"/><g filter="url(#a)"><g clip-path="url(#b)"><path d="m15 16.8796c0-1.2306.6011-1.9518 1.6447-1.9518h27.7106c1.0445 0 1.6447.7212 1.6447 1.9518v19.8435c0 1.2317-.6011 1.9519-1.6447 1.9519h-27.7106c-1.0436 0-1.6447-.7202-1.6447-1.9519zm0 25.6991c0-.8978.6312-1.6259 1.4088-1.6259h28.1816c.5037 0 .9687.3094 1.221.813.1239.2481.1889.5283.1889.8134s-.065.5653-.1889.8134c-.1217.246-.2989.4508-.5135.5937-.2145.1428-.4587.2185-.7075.2193h-28.1816c-.7776 0-1.4088-.7281-1.4088-1.6269z" fill="#fff"/></g><path d="m30.2892 28.4111c-1.1142.0508-2.0432.5329-2.6974 1.0087-.3278.2384-.5888.4768-.7722.6622-.172.1738-.2819.3073-.313.3523-.2618.3511-.2298.8324.1196 1.1162.319.285.8274.2402 1.1004-.1193l.001-.0012.0091-.0108c.0082-.0097.0208-.0242.0375-.043.0334-.0376.0834-.0918.1485-.1574.1303-.1312.3203-.3066.558-.4829.4777-.3544 1.1353-.7024 1.8818-.7178l.0018-.0001c.5852-.0189 1.1653.1606 1.7501.5317l.143.0907.0728-.1529c.1851-.3889.4233-.7436.7071-1.0529l.1196-.1305-.1483-.0966c-.8666-.5646-1.7768-.8407-2.7194-.7964zm0 0h.0001l.0069.1498m-.007-.1498s0 0-.0001 0l.0071.1498m0 0c-2.1499.0979-3.6041 1.8625-3.6674 1.9605m3.6674-1.9605c.8607-.0405 1.697.1961 2.5018.6908l-6.1692 1.2697m0 0c-.2213.2941-.1897.6862.0948.9149.253.2288.6639.1961.8852-.0981zm4.8591 1.8143c-.2617-.2705-.6295-.4285-1.002-.4285s-.7402.1577-1.002.4285h-.0001c-.2615.2705-.4125.6481-.4125 1.0284 0 .3805.151.7582.4126 1.0286l1.8962-.1043.1078.1043c.2619-.2704.4127-.6481.4127-1.0286 0-.3802-.151-.758-.4127-1.0284zm0 0-.1078.1043.1078-.1044zm6.8323-6.6704.0007.0006c.3062.2772.8167.2886 1.1001-.079.3072-.3254.2654-.842-.0448-1.1231-4.7067-4.3038-9.1433-4.3197-12.4114-3.2339-1.6292.5413-2.9641 1.3547-3.8951 2.0381-.4658.3419-.8312.6519-1.0828.88-.1258.114-.2233.2078-.2907.275-.0337.0336-.0602.0608-.0791.0809-.0094.0099-.0173.0185-.0235.0255-.0002.0002-.0004.0004-.0006.0006-.0017.002-.0054.0061-.0098.0115-.3074.3245-.2657.8371.0057 1.1175.1533.1585.3497.2418.5505.2418.0663 0 .1337-.0196.1886-.0402.0575-.0216.1144-.0495.1632-.0758.0492-.0266.0928-.053.1239-.0726.0157-.0099.0283-.0181.0373-.0241l.0104-.007.003-.002.0009-.0006.0003-.0002.0001-.0001-.0851-.1235.0851.1235.0125-.0086.0104-.0108.0001-.0002.0008-.0008.0037-.0037.0152-.0154c.0137-.0137.0344-.0342.062-.0609.0551-.0533.1375-.131.2457-.2274.2164-.193.5357-.4609.9451-.7588.8193-.5962 1.9971-1.3105 3.4327-1.7863 2.8618-.9483 6.7636-.9557 10.9249 2.86zm-1.4019 2.5796.1306.0328.0467-.1263c.1081-.2922.0556-.6557-.2202-.8805-1.7158-1.5743-3.3715-2.3622-4.895-2.6503-1.5242-.2881-2.9059-.0741-4.0701.3394-1.1633.4133-2.111 1.0261-2.7711 1.5387-.3303.2566-.5894.4885-.7682.6589-.0895.0852-.1589.155-.2072.2048-.0336.0346-.0715.075-.0774.0815l-.0002-.0002-.0063.0074c-.2656.3138-.2761.8323.0457 1.123l-.0003.0003.0089.0069c.1433.1113.333.195.5028.195.1948 0 .4312-.0797.5912-.2847.0939-.1121 1.2477-1.3825 3.0718-2.0399 1.8204-.6561 4.3231-.708 7.1374 1.6591l.0489.0411.0636-.0068c.1375-.0146.2767-.0224.4177-.0224.3267 0 .6439.045.9507.1222zm2.3227 4.139c0-1.881-1.4592-3.4175-3.2734-3.4175s-3.2734 1.5365-3.2734 3.4175c0 1.8811 1.4592 3.4176 3.2734 3.4176s3.2734-1.5365 3.2734-3.4176z" fill="#c0ccda" stroke="#c0ccda" stroke-width=".3"/><g clip-path="url(#c)"><path d="m35.6927 33.0124c.01.0569.0387.1084.0812.1454s.096.0573.1513.0573.1089-.0203.1514-.0573c.0424-.037.0712-.0885.0811-.1454l.155-2.2296c-.0002-.1074-.0411-.2104-.1137-.2864s-.1711-.1187-.2738-.119c-.0538.0014-.1068.0142-.1558.0376-.0489.0235-.0929.057-.1291.0987s-.064.0906-.0816.1438c-.0176.0533-.0248.1097-.021.1659zm.2325.6081c-.0766 0-.1515.0238-.2153.0683-.0637.0446-.1133.1079-.1427.182-.0293.074-.037.1555-.022.2342.0149.0786.0518.1508.106.2075s.1233.0953.1984.111c.0752.0156.1531.0076.2239-.0231s.1313-.0826.1739-.1493.0653-.145.0653-.2252c.0032-.0541-.0047-.1083-.0231-.1589-.0184-.0507-.0468-.0967-.0834-.135-.0367-.0383-.0806-.0681-.1291-.0873-.0484-.0192-.1002-.0275-.1519-.0242z" fill="#fff"/></g></g></svg>