<svg fill="none" height="153" viewBox="0 0 175 153" width="175" xmlns="http://www.w3.org/2000/svg" xmlns:xlink="http://www.w3.org/1999/xlink"><clipPath id="a"><path d="m67.3658 37.2726h39.7273v78.5909h-39.7273z"/></clipPath><circle cx="87.2292" cy="76.1363" r="75.6363" stroke="#7cd6bd" stroke-dasharray="2 2" stroke-opacity=".5"/><circle cx="87.2294" cy="76.1361" fill="#eaf9f5" fill-opacity=".6" r="63.9091"/><circle cx="87.8653" cy="75.9081" fill="#dcf5ee" r="53.4773" stroke="#7cd6bd" stroke-dasharray="2 2"/><g clip-path="url(#a)"><g clip-rule="evenodd" fill-rule="evenodd"><path d="m102.328 115.108h-30.1973c-2.6316 0-4.7649-2.164-4.7649-4.833v-68.1698c0-2.6688 2.1333-4.8325 4.7649-4.8325h30.1973c2.632 0 4.765 2.1637 4.765 4.8325v68.1698c0 2.669-2.133 4.833-4.765 4.833z" fill="#00bf8a"/><path d="m102.171 114.352h-29.8832c-2.3044 0-4.1723-1.902-4.1723-4.248v-67.8274c0-2.3463 1.8679-4.2483 4.1723-4.2483h29.8832c2.305 0 4.173 1.902 4.173 4.2483v67.8274c0 2.346-1.868 4.248-4.173 4.248z" fill="#fffffe"/><path d="m104.844 42.409v67.563c0 1.584-1.277 2.869-2.853 2.869h-29.5227c-1.5761 0-2.8538-1.285-2.8538-2.869v-67.563c0-1.5845 1.2777-2.8693 2.8538-2.8693h4.923c.2734 0 .5231.1552.6454.4008l.5228 1.0492c.2382.4841.7299.7873 1.2647.7873h14.8104c.5348 0 1.0265-.3032 1.2647-.7873l.5228-1.0492c.1224-.2456.3721-.4008.6454-.4008h4.9235c1.576 0 2.853 1.2848 2.853 2.8693z" fill="#53cfac"/></g><rect fill="#00a174" height="7" rx=".5" width="7.79843" x="72.7772" y="60.88"/><path d="m76.7052 63.024c-.096.1-.216.192-.36.28-.144.08-.28.136-.408.168v.464c.264-.076.48-.192.652-.348v2.292h.468v-2.856z" fill="#dcf5ee"/><rect fill="#00a174" height="7" rx=".5" width="7.79843" x="82.7772" y="60.88"/><path d="m87.0212 62.968c-.308 0-.556.104-.744.312-.184.196-.276.452-.28.772h.468c.008-.224.056-.396.144-.508.088-.12.22-.18.396-.18.164 0 .288.036.372.112.08.076.124.192.124.348 0 .16-.064.312-.188.452-.08.084-.208.192-.392.32-.332.228-.552.404-.656.524-.192.216-.284.468-.284.76h1.992v-.412h-1.408c.064-.144.24-.312.532-.504.28-.188.48-.34.592-.46.184-.204.28-.428.28-.676 0-.256-.088-.46-.264-.62-.18-.16-.408-.24-.684-.24z" fill="#dcf5ee"/><rect fill="#00a174" height="7" rx=".5" width="7.79843" x="93.7772" y="60.88"/><path d="m98.0052 62.968c-.28 0-.512.076-.692.236-.192.16-.296.384-.32.672h.46c.016-.172.072-.3.168-.384.092-.084.22-.124.388-.124.164 0 .288.036.372.108.076.072.116.176.116.316s-.044.248-.128.32c-.088.072-.216.108-.384.108h-.2v.352h.2c.184 0 .324.036.42.116.096.076.148.196.148.36 0 .136-.048.248-.14.34-.104.1-.248.152-.428.152-.164 0-.296-.048-.396-.14-.112-.1-.168-.244-.176-.428h-.476c.024.32.136.568.336.736.18.152.42.228.716.228.312 0 .564-.088.756-.26.184-.168.276-.384.276-.648 0-.168-.048-.308-.144-.416-.088-.104-.22-.18-.388-.232.316-.104.476-.312.476-.624 0-.248-.088-.44-.26-.58-.176-.14-.412-.208-.7-.208z" fill="#dcf5ee"/><rect fill="#00a174" height="7" rx=".5" width="7.79843" x="72.7772" y="71.88"/><path d="m77.2492 74.024-1.396 1.8v.444h1.38v.612h.444v-.612h.424v-.372h-.424v-1.872zm-.028.592h.012v1.28h-1z" fill="#dcf5ee"/><rect fill="#00a174" height="7" rx=".5" width="7.79843" x="82.7772" y="71.88"/><path d="m86.1452 74.024-.156 1.608h.436c.056-.1.132-.172.232-.22.088-.044.196-.064.32-.064.184 0 .328.052.424.164.096.108.148.26.148.452 0 .176-.06.316-.172.42-.116.104-.26.156-.428.156-.156 0-.28-.036-.368-.1-.104-.076-.164-.192-.184-.348h-.46c.02.264.132.476.34.632.184.14.408.212.668.212.284 0 .528-.084.736-.252.224-.188.336-.428.336-.724 0-.308-.088-.552-.256-.728s-.388-.264-.656-.264c-.128 0-.244.02-.348.06-.116.04-.216.104-.304.192h-.012l.08-.784h1.364v-.412z" fill="#dcf5ee"/><rect fill="#00a174" height="7" rx=".5" width="7.79843" x="93.7772" y="71.88"/><path d="m98.0172 73.968c-.332 0-.596.144-.788.432-.196.288-.292.664-.292 1.132 0 .436.088.776.272 1.024.184.252.452.38.804.38.284 0 .524-.096.716-.28s.292-.42.292-.708c0-.28-.084-.512-.252-.692s-.392-.268-.672-.268c-.144 0-.272.024-.384.08-.12.056-.22.14-.3.26h-.02v-.036c0-.264.052-.484.164-.66.112-.188.264-.28.456-.28.272 0 .44.132.496.396h.456c-.072-.52-.388-.78-.948-.78zm-.02 1.4c.172 0 .308.052.412.16.096.104.148.244.148.42s-.052.32-.156.432-.236.168-.404.168c-.164 0-.296-.052-.4-.156s-.156-.248-.156-.428c0-.184.048-.332.148-.436.096-.108.232-.16.408-.16z" fill="#dcf5ee"/><rect fill="#00a174" height="7" rx=".5" width="7.79843" x="72.7772" y="82.88"/><path d="m75.8972 85.024v.424h1.46l-1.024 2.432h.496l1-2.48v-.376z" fill="#dcf5ee"/><rect fill="#00a174" height="7" rx=".5" width="7.79843" x="82.7772" y="82.88"/><path d="m86.9772 84.968c-.308 0-.552.08-.732.244-.164.144-.244.324-.244.54 0 .144.032.268.096.368.068.104.172.188.316.244v.008c-.136.036-.248.116-.344.24-.112.136-.164.292-.164.468 0 .256.092.46.28.62.184.156.448.236.792.236.34 0 .604-.08.792-.236.184-.16.28-.364.28-.62 0-.176-.056-.332-.164-.468-.096-.124-.212-.204-.344-.24v-.008c.14-.056.244-.14.316-.244.064-.1.096-.224.096-.368 0-.216-.084-.396-.244-.54-.184-.164-.428-.244-.732-.244zm0 .372c.168 0 .3.044.404.136.088.08.132.176.132.292 0 .132-.036.236-.108.312-.088.092-.232.14-.428.14-.2 0-.34-.048-.428-.14-.072-.076-.108-.18-.108-.312 0-.116.044-.212.132-.292.1-.092.236-.136.404-.136zm0 1.228c.2 0 .352.048.46.148.096.088.148.212.148.364 0 .144-.052.256-.152.344-.112.088-.264.136-.456.136-.196 0-.344-.044-.448-.132-.108-.088-.16-.204-.16-.348 0-.152.048-.276.152-.368.104-.096.256-.144.456-.144z" fill="#dcf5ee"/><rect fill="#00a174" height="7" rx=".5" width="7.79843" x="93.7772" y="82.88"/><path d="m97.9452 84.968c-.288 0-.528.092-.72.28-.192.184-.288.42-.288.708 0 .28.08.508.248.684.168.184.396.276.676.276.144 0 .272-.028.384-.08.116-.056.216-.144.3-.26h.02v.036c0 .264-.056.484-.164.66-.116.184-.268.28-.456.28-.276 0-.44-.132-.496-.396h-.456c.068.52.384.78.948.78.328 0 .592-.144.788-.432.192-.288.292-.668.292-1.132 0-.44-.092-.78-.276-1.028-.184-.252-.452-.376-.8-.376zm.016.388c.16 0 .296.052.4.156s.156.244.156.428-.052.328-.148.436c-.1.104-.236.16-.408.16-.176 0-.312-.056-.408-.16-.104-.104-.152-.244-.152-.42s.048-.32.152-.432.24-.168.408-.168z" fill="#dcf5ee"/><rect fill="#00a174" height="7" rx=".5" width="7.79843" x="82.7772" y="93.88"/><path d="m86.9772 95.968c-.336 0-.596.136-.78.416-.176.264-.264.62-.264 1.068s.088.804.264 1.068c.184.276.444.416.78.416.332 0 .592-.14.78-.416.176-.264.264-.62.264-1.068s-.088-.804-.264-1.068c-.188-.28-.448-.416-.78-.416zm0 .396c.224 0 .384.124.48.38.064.172.096.408.096.708 0 .296-.032.532-.096.708-.096.252-.256.38-.48.38-.228 0-.388-.128-.48-.38-.064-.176-.096-.412-.096-.708 0-.3.032-.536.096-.708.092-.256.252-.38.48-.38z" fill="#dcf5ee"/></g><rect fill="#00a174" height=".863636" rx=".431818" width="13.8182" x="80.3204" y="109.818"/><g stroke="#dcf5ee" stroke-width=".3"><path d="m72.5477 54.8219h6.9091"/><path d="m80.3203 54.8219h4.3182"/><path d="m86.3658 54.8219h4.3182"/><path d="m92.4115 54.8219h4.3182"/><path d="m98.4567 54.8219h4.3183"/></g><path d="m73.7902 52.8098v.41h-.412v.188h.412v.412h.188v-.412h.41v-.188h-.41v-.41zm1.965-.434c-.154 0-.276.04-.366.122-.082.072-.122.162-.122.27 0 .072.016.134.048.184.034.052.086.094.158.122v.004c-.068.018-.124.058-.172.12-.056.068-.082.146-.082.234 0 .128.046.23.14.31.092.078.224.118.396.118.17 0 .302-.04.396-.118.092-.08.14-.182.14-.31 0-.088-.028-.166-.082-.234-.048-.062-.106-.102-.172-.12v-.004c.07-.028.122-.07.158-.122.032-.05.048-.112.048-.184 0-.108-.042-.198-.122-.27-.092-.082-.214-.122-.366-.122zm0 .186c.084 0 .15.022.202.068.044.04.066.088.066.146 0 .066-.018.118-.054.156-.044.046-.116.07-.214.07-.1 0-.17-.024-.214-.07-.036-.038-.054-.09-.054-.156 0-.058.022-.106.066-.146.05-.046.118-.068.202-.068zm0 .614c.1 0 .176.024.23.074.048.044.074.106.074.182 0 .072-.026.128-.076.172-.056.044-.132.068-.228.068-.098 0-.172-.022-.224-.066-.054-.044-.08-.102-.08-.174 0-.076.024-.138.076-.184.052-.048.128-.072.228-.072zm1.2192-.8c-.166 0-.298.072-.394.216-.098.144-.146.332-.146.566 0 .218.044.388.136.512.092.126.226.19.402.19.142 0 .262-.048.358-.14s.146-.21.146-.354c0-.14-.042-.256-.126-.346s-.196-.134-.336-.134c-.072 0-.136.012-.192.04-.06.028-.11.07-.15.13h-.01v-.018c0-.132.026-.242.082-.33.056-.094.132-.14.228-.14.136 0 .22.066.248.198h.228c-.036-.26-.194-.39-.474-.39zm-.01.7c.086 0 .154.026.206.08.048.052.074.122.074.21s-.026.16-.078.216-.118.084-.202.084c-.082 0-.148-.026-.2-.078s-.078-.124-.078-.214c0-.092.024-.166.074-.218.048-.054.116-.08.204-.08z" fill="#dcf5ee"/><path d="m151.08 99.5015-1.75.3647-1.286-1.2262c-.117-.0965-.276-.1239-.419-.072-.143.052-.247.1755-.274.3242l-.197 1.7668-1.575.845c-.138.073-.222.218-.217.373s.098.294.24.357l1.627.727.315 1.749c.027.152.139.276.289.318s.311-.004.416-.119l1.204-1.318 1.769.235c.155.021.308-.048.395-.176.088-.129.094-.296.017-.43l-.882-1.542.779-1.602c.068-.1396.05-.3052-.045-.4271-.096-.1219-.253-.179-.406-.1473z" fill="#fff" opacity=".4"/><path d="m169.918 93.695-1.452-.7793-.182-1.6285c-.025-.1371-.121-.251-.253-.2989-.131-.0479-.278-.0226-.386.0664l-1.186 1.1309-1.613-.3366c-.141-.0297-.286.0228-.374.1353-.089.1126-.105.2656-.042.3946l.717 1.4776-.813 1.4215c-.071.124-.065.2777.015.3964.081.1186.222.1818.365.1628l1.632-.2173 1.11 1.2146c.096.106.245.1483.383.1092s.242-.1529.267-.2935l.29-1.612 1.5-.6696c.131-.0586.217-.186.222-.3288.004-.1427-.073-.2762-.199-.3442z" fill="#eaf9f5"/><path d="m144.873 34.1044-1.452-.7792-.182-1.6285c-.025-.1372-.122-.2511-.253-.299-.132-.0479-.279-.0226-.386.0664l-1.186 1.1309-1.613-.3366c-.141-.0296-.286.0229-.375.1354-.088.1125-.104.2655-.042.3945l.718 1.4776-.814 1.4215c-.071.124-.065.2777.016.3964s.222.1818.364.1629l1.632-.2173 1.11 1.2145c.097.106.246.1484.384.1093.138-.0392.241-.153.266-.2936l.291-1.612 1.5-.6696c.131-.0585.216-.186.221-.3287.005-.1428-.072-.2762-.199-.3442z" fill="#dcf5ee"/><path clip-rule="evenodd" d="m160.888 132.614c1.192 0 2.158-.96 2.158-2.145 0-1.184-.966-2.144-2.158-2.144s-2.158.96-2.158 2.144c0 1.185.966 2.145 2.158 2.145z" fill-rule="evenodd" stroke="#fff" stroke-width="1.1"/><path clip-rule="evenodd" d="m172.265 85.431c1.192 0 2.158-.9601 2.158-2.1444s-.966-2.1444-2.158-2.1444-2.158.9601-2.158 2.1444.966 2.1444 2.158 2.1444z" fill-rule="evenodd" stroke="#fff" stroke-width="1.1"/><path d="m24.2386 99.5015 1.7494.3647 1.2864-1.2262c.1164-.0965.2758-.1239.4186-.072.1428.052.2473.1755.2744.3242l.1972 1.7668 1.5746.845c.1377.073.2217.218.2167.373-.0049.155-.0981.294-.2401.357l-1.6263.727-.315 1.749c-.0275.152-.1397.276-.2894.318s-.3109-.004-.416-.119l-1.2044-1.318-1.7689.235c-.1544.021-.3075-.048-.3949-.176-.0874-.129-.094-.296-.017-.43l.8825-1.542-.7794-1.602c-.0678-.1396-.0502-.3052.0454-.4271.0957-.1219.2527-.179.4053-.1473z" fill="#7cd6bd"/><path d="m102.001 143.786 1.452-.779.182-1.629c.025-.137.121-.251.253-.299.132-.047.279-.022.386.067l1.186 1.131 1.613-.337c.141-.029.286.023.375.136.088.112.104.265.042.394l-.718 1.478.814 1.421c.071.124.064.278-.016.397-.081.118-.222.181-.364.162l-1.632-.217-1.11 1.215c-.097.106-.246.148-.384.109s-.241-.153-.267-.294l-.29-1.612-1.5-.669c-.131-.059-.217-.186-.221-.329-.005-.143.072-.276.199-.344z" fill="#dcf5ee"/><path clip-rule="evenodd" d="m14.4302 132.614c-1.1918 0-2.158-.96-2.158-2.145 0-1.184.9662-2.144 2.158-2.144 1.1919 0 2.1581.96 2.1581 2.144 0 1.185-.9662 2.145-2.1581 2.145z" fill-rule="evenodd" stroke="#fff" stroke-width="1.1"/><path d="m153.729 134c-2.862 0-5.182-2.32-5.182-5.182s2.32-5.182 5.182-5.182 5.182 2.32 5.182 5.182-2.32 5.182-5.182 5.182z" stroke="#dcf5ee"/><path d="m3.45463 56.2025c-1.90789 0-3.45453988-1.5466-3.45453988-3.4545s1.54664988-3.4546 3.45453988-3.4546c1.9079 0 3.45455 1.5467 3.45455 3.4546s-1.54665 3.4545-3.45455 3.4545z" fill="#dcf5ee"/><path d="m18.1383 132.273c-.9539 0-1.7272-.774-1.7272-1.728s.7733-1.727 1.7272-1.727c.954 0 1.7273.773 1.7273 1.727s-.7733 1.728-1.7273 1.728z" fill="#dcf5ee"/><path d="m147.684 68.3635c-1.908 0-3.455-1.5467-3.455-3.4545 0-1.9079 1.547-3.4546 3.455-3.4546s3.455 1.5467 3.455 3.4546c0 1.9078-1.547 3.4545-3.455 3.4545z" fill="#7cd6bd"/><path d="m122.638 5.31838c-.953 0-1.727-.77333-1.727-1.72728 0-.95394.774-1.72727 1.727-1.72727.954 0 1.728.77333 1.728 1.72727 0 .95395-.774 1.72728-1.728 1.72728z" fill="#dcf5ee"/><path d="m133.866 127.091c-.954 0-1.728-.773-1.728-1.727s.774-1.728 1.728-1.728 1.727.774 1.727 1.728-.773 1.727-1.727 1.727z" fill="#7cd6bd"/><path d="m58.7294 153c-.954 0-1.7273-.773-1.7273-1.727s.7733-1.728 1.7273-1.728c.9539 0 1.7273.774 1.7273 1.728s-.7734 1.727-1.7273 1.727z" fill="#7cd6bd"/></svg>